<svg width="169" height="203" viewBox="0 0 169 203" fill="none" xmlns="http://www.w3.org/2000/svg">
<path fill-rule="evenodd" clip-rule="evenodd" d="M83 53.5L1 49.5L18.0648 1L150 9L146.5 49.5L64 151L167.5 162L156.044 194.323C145.872 193.764 134.698 193.051 115 191.557C124.724 193.905 138.839 195.611 147 196.5C149.619 196.785 152.486 196.823 155.198 196.711L153.5 201.5L1 192.5V151L83 53.5ZM137 47.5C141.598 40.7 141.523 32.1667 141 31C138.459 40.2076 132.528 49.8589 114 75C114.499 74.4343 115.028 73.8362 115.581 73.2109L115.595 73.195L115.595 73.195C122.37 65.529 132.751 53.7828 137 47.5Z" fill="#0068FF"/>
<path d="M1 49.5L0.528344 49.334L0.305734 49.9667L0.975639 49.9994L1 49.5ZM83 53.5L83.3827 53.8218L84.032 53.0497L83.0244 53.0006L83 53.5ZM18.0648 1L18.0951 0.500917L17.7184 0.478077L17.5932 0.834047L18.0648 1ZM150 9L150.498 9.04305L150.542 8.53197L150.03 8.50092L150 9ZM146.5 49.5L146.888 49.8154L146.985 49.6961L146.998 49.543L146.5 49.5ZM64 151L63.612 150.685L63.0307 151.4L63.9472 151.497L64 151ZM167.5 162L167.971 162.167L168.183 161.57L167.553 161.503L167.5 162ZM156.044 194.323L156.016 194.823L156.39 194.843L156.515 194.49L156.044 194.323ZM115 191.557L115.038 191.058L114.883 192.043L115 191.557ZM147 196.5L147.054 196.003L147.054 196.003L147 196.5ZM155.198 196.711L155.669 196.878L155.916 196.18L155.177 196.211L155.198 196.711ZM153.5 201.5L153.471 201.999L153.846 202.021L153.971 201.667L153.5 201.5ZM1 192.5H0.5V192.971L0.970543 192.999L1 192.5ZM1 151L0.617341 150.678L0.5 150.818V151H1ZM141 31L141.456 30.7956L140.888 29.5265L140.518 30.867L141 31ZM137 47.5L136.586 47.2199L136.586 47.2199L137 47.5ZM114 75L113.597 74.7034L114.375 75.3309L114 75ZM115.581 73.2109L115.206 72.8797L115.206 72.8797L115.581 73.2109ZM115.595 73.195L115.969 73.5262L115.992 73.5007L116.011 73.4724L115.595 73.195ZM115.595 73.195L115.22 72.8638L115.197 72.8893L115.179 72.9176L115.595 73.195ZM0.975639 49.9994L82.9756 53.9994L83.0244 53.0006L1.02436 49.0006L0.975639 49.9994ZM17.5932 0.834047L0.528344 49.334L1.47166 49.666L18.5365 1.16595L17.5932 0.834047ZM150.03 8.50092L18.0951 0.500917L18.0346 1.49908L149.97 9.49908L150.03 8.50092ZM146.998 49.543L150.498 9.04305L149.502 8.95695L146.002 49.457L146.998 49.543ZM64.388 151.315L146.888 49.8154L146.112 49.1846L63.612 150.685L64.388 151.315ZM167.553 161.503L64.0528 150.503L63.9472 151.497L167.447 162.497L167.553 161.503ZM156.515 194.49L167.971 162.167L167.029 161.833L155.572 194.156L156.515 194.49ZM156.071 193.824C145.904 193.265 134.733 192.552 115.038 191.058L114.962 192.055C134.662 193.549 145.84 194.263 156.016 194.823L156.071 193.824ZM114.883 192.043C124.642 194.4 138.788 196.109 146.946 196.997L147.054 196.003C138.891 195.114 124.805 193.41 115.117 191.071L114.883 192.043ZM146.946 196.997C149.596 197.286 152.489 197.324 155.218 197.21L155.177 196.211C152.482 196.323 149.641 196.285 147.054 196.003L146.946 196.997ZM153.971 201.667L155.669 196.878L154.726 196.544L153.029 201.333L153.971 201.667ZM0.970543 192.999L153.471 201.999L153.529 201.001L1.02946 192.001L0.970543 192.999ZM0.5 151V192.5H1.5V151H0.5ZM82.6173 53.1782L0.617341 150.678L1.38266 151.322L83.3827 53.8218L82.6173 53.1782ZM140.544 31.2044C140.576 31.2768 140.628 31.4735 140.67 31.8248C140.711 32.1603 140.738 32.5968 140.742 33.1182C140.751 34.1602 140.668 35.5215 140.426 37.0601C139.944 40.1407 138.832 43.8982 136.586 47.2199L137.414 47.7801C139.766 44.3018 140.916 40.3926 141.414 37.2149C141.664 35.6243 141.751 34.2085 141.742 33.11C141.738 32.5611 141.709 32.0863 141.663 31.7053C141.619 31.34 141.555 31.0149 141.456 30.7956L140.544 31.2044ZM114.403 75.2966C132.916 50.1742 138.912 40.4466 141.482 31.133L140.518 30.867C138.007 39.9686 132.139 49.5437 113.597 74.7034L114.403 75.2966ZM115.206 72.8797C114.653 73.5051 114.124 74.1033 113.625 74.6691L114.375 75.3309C114.874 74.7653 115.402 74.1674 115.955 73.542L115.206 72.8797ZM115.22 72.8639L115.206 72.8797L115.955 73.542L115.969 73.5262L115.22 72.8639ZM115.179 72.9176L115.179 72.9177L116.011 73.4724L116.011 73.4723L115.179 72.9176ZM136.586 47.2199C132.36 53.4687 122.008 65.1839 115.22 72.8638L115.969 73.5261C122.732 65.874 133.142 54.0969 137.414 47.7801L136.586 47.2199Z" fill="#0068FF"/>
</svg>
